<?xml version="1.0" encoding="UTF-8" standalone="no"?>
<svg
   version="1.0"
   width="500.44623pt"
   height="450.11111pt"
   viewBox="0 0 500.44623 450.11111"
   preserveAspectRatio="xMidYMid"
   id="svg44"
   sodipodi:docname="exhume.svg"
   inkscape:version="1.4 (e7c3feb1, 2024-10-09)"
   xml:space="preserve"
   inkscape:export-filename="exhume.png"
   inkscape:export-xdpi="96"
   inkscape:export-ydpi="96"
   xmlns:inkscape="http://www.inkscape.org/namespaces/inkscape"
   xmlns:sodipodi="http://sodipodi.sourceforge.net/DTD/sodipodi-0.dtd"
   xmlns="http://www.w3.org/2000/svg"
   xmlns:svg="http://www.w3.org/2000/svg"><defs
     id="defs44" /><sodipodi:namedview
     id="namedview44"
     pagecolor="#ffffff"
     bordercolor="#000000"
     borderopacity="0.25"
     inkscape:showpageshadow="2"
     inkscape:pageopacity="0.0"
     inkscape:pagecheckerboard="0"
     inkscape:deskcolor="#d1d1d1"
     inkscape:document-units="pt"
     inkscape:zoom="1.4780273"
     inkscape:cx="334.22929"
     inkscape:cy="277.39678"
     inkscape:window-width="1728"
     inkscape:window-height="1387"
     inkscape:window-x="1720"
     inkscape:window-y="25"
     inkscape:window-maximized="0"
     inkscape:current-layer="g44"
     showguides="false" /><metadata
     id="metadata1">
Created by potrace 1.16, written by Peter Selinger 2001-2019
</metadata><g
     transform="matrix(0.1,0,0,-0.1,-14.080602,493.36709)"
     fill="#000000"
     stroke="none"
     id="g44"><path
       style="fill:#ffffff;stroke:none;stroke-width:7.49;stroke-opacity:1;paint-order:markers fill stroke;fill-opacity:0.79347825"
       d="m 1863.6282,2701.2404 362.3975,-358.8093 c 217.0702,35.0319 366.4307,198.1569 509.5093,333.6927 l -21.5286,68.1738 35.881,28.7047 v 57.4095 l 1336.565,1268.3912 c 87.1475,-15.8238 104.2198,-30.2537 200.9332,-170.4345 L 2954.4087,2532.6 l -39.469,-21.5286 -50.2333,39.4691 c -138.0353,-153.7963 -300.4375,-283.2258 -348.0451,-527.4498 l 387.5141,-351.6332 c 0,0 -728.9204,-711.33589 -753.4997,-731.97109 -755.3416,-634.1355 -1704.0102,65.34919 -1096.035,885.38849 z"
       id="path88"
       sodipodi:nodetypes="cccccccccccccscc" /><rect
       style="fill:#ffffff;fill-opacity:1;stroke:none;stroke-width:7.29989;stroke-opacity:1;paint-order:markers fill stroke"
       id="rect119"
       width="4974.2715"
       height="45.668983"
       x="147.98227"
       y="-1718.3109"
       transform="scale(1,-1)"
       ry="16.819191" /><path
       style="fill:#ffffff;fill-opacity:1;stroke:none;stroke-width:8.36281;stroke-opacity:1;paint-order:markers fill stroke"
       d="m 4115.2311,4136.5707 c 132.1279,-69.4231 177.0067,-120.0746 200.9621,-184.0626 l 113.6863,120.181 c -47.6796,52.2547 -103.5799,138.3285 -195.2101,164.2129 z"
       id="path92"
       sodipodi:nodetypes="ccccc" /><path
       style="fill:#000000;fill-opacity:1;stroke:none;stroke-width:13.6599;stroke-opacity:1;paint-order:markers fill stroke"
       d="m 4040.2096,3996.5376 c -36.7602,-12.8669 -1247.3546,-1210.4254 -1238.4165,-1221.814 -18.8213,-68.9757 30.1686,-23.9426 56.1771,-34.0142 421.2666,399.7643 836.783,780.8187 1241.0405,1180.6239 -8.1915,38.7322 32.2242,76.0503 -58.8011,75.2043 z"
       id="path89"
       sodipodi:nodetypes="ccccc" /><path
       style="fill:#000000;fill-opacity:1;stroke:none;stroke-width:7.49;stroke-opacity:1;paint-order:markers fill stroke"
       d="m 2209.3699,2323.4118 c -182.5342,-259.2772 -320.6042,-478.1322 -428.781,-669.8117 l 7.6115,-17.7602 c 346.3374,301.8942 670.3945,648.3488 1004.7176,974.2716 l -63.4291,48.2061 c -137.3421,-149.6506 -308.3982,-279.919 -520.119,-334.9058 z"
       id="path90"
       sodipodi:nodetypes="cccccc" /><path
       id="path95"
       style="fill:#dad9d5;fill-opacity:1;stroke-width:7.26474;paint-order:markers fill stroke"
       d="m 5055.0561,4490.3178 c 0,-109.4422 -43.6518,-214.4018 -121.3525,-291.7891 -77.7007,-77.3873 -183.0854,-120.863 -292.9708,-120.863 -109.8854,0 -215.2701,43.4757 -292.9708,120.863 -77.7007,77.3873 -121.3525,182.3469 -121.3525,291.7891 0,109.4421 43.6518,214.4019 121.3525,291.7892 77.7007,77.3873 183.0854,120.863 292.9708,120.863 109.8854,0 215.2702,-43.4757 292.9709,-120.863 77.7007,-77.3873 121.3524,-182.3471 121.3524,-291.7892 z"
       sodipodi:nodetypes="sssssssss" /><path
       id="path93"
       style="fill:#dad9d5;stroke:#dad9d5;stroke-width:8.86134;paint-order:markers fill stroke"
       d="m 5015.5659,4514.0183 a 349.15347,343.77136 0 0 0 -349.1535,-343.7714 349.15347,343.77136 0 0 0 -349.1534,343.7714 349.15347,343.77136 0 0 0 349.1534,343.7714 349.15347,343.77136 0 0 0 349.1535,-343.7714 z" /><path
       style="fill:#959595;fill-opacity:0.345109;stroke:none;stroke-width:7.49;stroke-opacity:1;paint-order:markers fill stroke"
       d="m 4410.9675,4671.534 c 61.0177,-35.5993 167.1026,55.4899 125.5833,127.3774 -79.8492,-14.4679 -136.14,-46.2947 -125.5833,-127.3774 z"
       id="path94"
       sodipodi:nodetypes="ccc" /><path
       d="m 300.44336,1378.9331 q 0,-62.6562 -19.6875,-92.0312 -19.53125,-29.2188 -60.78125,-29.2188 -41.875,0 -61.25,29.6875 -19.21875,29.6875 -19.21875,91.25 0,62.0313 19.53125,91.5625 19.53125,29.6875 60.9375,29.6875 41.875,0 61.09375,-30.1562 19.375,-30 19.375,-90.7813 z m -41.09375,-70.9375 q 5.46875,12.6563 7.34375,29.6875 2.03125,17.1875 2.03125,41.25 0,23.75 -2.03125,41.25 -1.875,17.5 -7.5,29.6875 -5.46875,12.0313 -15,18.125 -9.375,6.0938 -24.21875,6.0938 -14.6875,0 -24.375,-6.0938 -9.53125,-6.0937 -15.15625,-18.4375 -5.3125,-11.5625 -7.34375,-30.1562 -1.875,-18.5938 -1.875,-40.7813 0,-24.375 1.71875,-40.7812 1.71875,-16.4063 7.34375,-29.375 5.15625,-12.1875 14.53125,-18.5938 9.53125,-6.4062 25.15625,-6.4062 14.6875,0 24.375,6.0937 9.6875,6.0938 15,18.4375 z m 244.53125,70.9375 q 0,-62.6562 -19.6875,-92.0312 -19.53125,-29.2188 -60.78125,-29.2188 -41.875,0 -61.25,29.6875 -19.21875,29.6875 -19.21875,91.25 0,62.0313 19.53125,91.5625 19.53125,29.6875 60.9375,29.6875 41.875,0 61.09375,-30.1562 19.375,-30 19.375,-90.7813 z m -41.09375,-70.9375 q 5.46875,12.6563 7.34375,29.6875 2.03125,17.1875 2.03125,41.25 0,23.75 -2.03125,41.25 -1.875,17.5 -7.5,29.6875 -5.46875,12.0313 -15,18.125 -9.375,6.0938 -24.21875,6.0938 -14.6875,0 -24.375,-6.0938 -9.53125,-6.0937 -15.15625,-18.4375 -5.3125,-11.5625 -7.34375,-30.1562 -1.875,-18.5938 -1.875,-40.7813 0,-24.375 1.71875,-40.7812 1.71875,-16.4063 7.34375,-29.375 5.15625,-12.1875 14.53125,-18.5938 9.53125,-6.4062 25.15625,-6.4062 14.6875,0 24.375,6.0937 9.6875,6.0938 15,18.4375 z m 231.5625,-45.4687 h -125.9375 v 23.75 h 48.4375 v 155.9375 h -48.4375 v 21.25 q 9.84375,0 21.09375,1.5625 11.25,1.7187 17.03125,4.8437 7.1875,3.9063 11.25,9.8438 4.21875,6.0937 4.84375,16.25 h 24.21875 v -209.6875 h 47.5 z m 203.4375,0 h -125.9375 v 23.75 h 48.4375 v 155.9375 h -48.4375 v 21.25 q 9.84375,0 21.09375,1.5625 11.25,1.7187 17.03125,4.8437 7.1875,3.9063 11.25,9.8438 4.21875,6.0937 4.84375,16.25 h 24.21875 v -209.6875 h 47.5 z m 2016.40629,116.4062 q 0,-62.6562 -19.6875,-92.0312 -19.5313,-29.2188 -60.7813,-29.2188 -41.875,0 -61.25,29.6875 -19.2187,29.6875 -19.2187,91.25 0,62.0313 19.5312,91.5625 19.5313,29.6875 60.9375,29.6875 41.875,0 61.0938,-30.1562 19.375,-30 19.375,-90.7813 z m -41.0938,-70.9375 q 5.4688,12.6563 7.3438,29.6875 2.0312,17.1875 2.0312,41.25 0,23.75 -2.0312,41.25 -1.875,17.5 -7.5,29.6875 -5.4688,12.0313 -15,18.125 -9.375,6.0938 -24.2188,6.0938 -14.6875,0 -24.375,-6.0938 -9.5312,-6.0937 -15.1562,-18.4375 -5.3125,-11.5625 -7.3438,-30.1562 -1.875,-18.5938 -1.875,-40.7813 0,-24.375 1.7188,-40.7812 1.7187,-16.4063 7.3437,-29.375 5.1563,-12.1875 14.5313,-18.5938 9.5312,-6.4062 25.1562,-6.4062 14.6875,0 24.375,6.0937 9.6875,6.0938 15,18.4375 z m 244.5313,70.9375 q 0,-62.6562 -19.6875,-92.0312 -19.5313,-29.2188 -60.7813,-29.2188 -41.875,0 -61.25,29.6875 -19.2187,29.6875 -19.2187,91.25 0,62.0313 19.5312,91.5625 19.5313,29.6875 60.9375,29.6875 41.875,0 61.0938,-30.1562 19.375,-30 19.375,-90.7813 z m -41.0938,-70.9375 q 5.4688,12.6563 7.3438,29.6875 2.0312,17.1875 2.0312,41.25 0,23.75 -2.0312,41.25 -1.875,17.5 -7.5,29.6875 -5.4688,12.0313 -15,18.125 -9.375,6.0938 -24.2188,6.0938 -14.6875,0 -24.375,-6.0938 -9.5312,-6.0937 -15.1562,-18.4375 -5.3125,-11.5625 -7.3438,-30.1562 -1.875,-18.5938 -1.875,-40.7813 0,-24.375 1.7188,-40.7812 1.7187,-16.4063 7.3437,-29.375 5.1563,-12.1875 14.5313,-18.5938 9.5312,-6.4062 25.1562,-6.4062 14.6875,0 24.375,6.0937 9.6875,6.0938 15,18.4375 z m 231.5625,-45.4687 h -125.9375 v 23.75 h 48.4375 v 155.9375 h -48.4375 v 21.25 q 9.8438,0 21.0938,1.5625 11.25,1.7187 17.0312,4.8437 7.1875,3.9063 11.25,9.8438 4.2188,6.0937 4.8438,16.25 h 24.2187 v -209.6875 h 47.5 z m 216.4063,116.4062 q 0,-62.6562 -19.6875,-92.0312 -19.5313,-29.2188 -60.7813,-29.2188 -41.875,0 -61.25,29.6875 -19.2187,29.6875 -19.2187,91.25 0,62.0313 19.5312,91.5625 19.5313,29.6875 60.9375,29.6875 41.875,0 61.0938,-30.1562 19.375,-30 19.375,-90.7813 z m -41.0938,-70.9375 q 5.4688,12.6563 7.3438,29.6875 2.0312,17.1875 2.0312,41.25 0,23.75 -2.0312,41.25 -1.875,17.5 -7.5,29.6875 -5.4688,12.0313 -15,18.125 -9.375,6.0938 -24.2188,6.0938 -14.6875,0 -24.375,-6.0938 -9.5312,-6.0937 -15.1562,-18.4375 -5.3125,-11.5625 -7.3438,-30.1562 -1.875,-18.5938 -1.875,-40.7813 0,-24.375 1.7188,-40.7812 1.7187,-16.4063 7.3437,-29.375 5.1563,-12.1875 14.5313,-18.5938 9.5312,-6.4062 25.1562,-6.4062 14.6875,0 24.375,6.0937 9.6875,6.0938 15,18.4375 z m 231.5625,-45.4687 h -125.9375 v 23.75 h 48.4375 v 155.9375 h -48.4375 v 21.25 q 9.8438,0 21.0938,1.5625 11.25,1.7187 17.0312,4.8437 7.1875,3.9063 11.25,9.8438 4.2188,6.0937 4.8438,16.25 h 24.2187 v -209.6875 h 47.5 z m 216.4063,116.4062 q 0,-62.6562 -19.6875,-92.0312 -19.5313,-29.2188 -60.7813,-29.2188 -41.875,0 -61.25,29.6875 -19.2187,29.6875 -19.2187,91.25 0,62.0313 19.5312,91.5625 19.5313,29.6875 60.9375,29.6875 41.875,0 61.0938,-30.1562 19.375,-30 19.375,-90.7813 z m -41.0938,-70.9375 q 5.4688,12.6563 7.3438,29.6875 2.0312,17.1875 2.0312,41.25 0,23.75 -2.0312,41.25 -1.875,17.5 -7.5,29.6875 -5.4688,12.0313 -15,18.125 -9.375,6.0938 -24.2188,6.0938 -14.6875,0 -24.375,-6.0938 -9.5312,-6.0937 -15.1562,-18.4375 -5.3125,-11.5625 -7.3438,-30.1562 -1.875,-18.5938 -1.875,-40.7813 0,-24.375 1.7188,-40.7812 1.7187,-16.4063 7.3437,-29.375 5.1563,-12.1875 14.5313,-18.5938 9.5312,-6.4062 25.1562,-6.4062 14.6875,0 24.375,6.0937 9.6875,6.0938 15,18.4375 z m 231.5625,-45.4687 h -125.9375 v 23.75 h 48.4375 v 155.9375 h -48.4375 v 21.25 q 9.8438,0 21.0938,1.5625 11.25,1.7187 17.0312,4.8437 7.1875,3.9063 11.25,9.8438 4.2188,6.0937 4.8438,16.25 h 24.2187 v -209.6875 h 47.5 z m 203.4375,0 h -125.9375 v 23.75 h 48.4375 v 155.9375 h -48.4375 v 21.25 q 9.8438,0 21.0938,1.5625 11.25,1.7187 17.0312,4.8437 7.1875,3.9063 11.25,9.8438 4.2188,6.0937 4.8438,16.25 h 24.2187 v -209.6875 h 47.5 z m 203.4375,0 h -125.9375 v 23.75 h 48.4375 v 155.9375 h -48.4375 v 21.25 q 9.8438,0 21.0938,1.5625 11.25,1.7187 17.0312,4.8437 7.1875,3.9063 11.25,9.8438 4.2188,6.0937 4.8438,16.25 h 24.2187 v -209.6875 h 47.5 z m 203.4375,0 h -125.9375 v 23.75 h 48.4375 v 155.9375 h -48.4375 v 21.25 q 9.8438,0 21.0938,1.5625 11.25,1.7187 17.0312,4.8437 7.1875,3.9063 11.25,9.8438 4.2188,6.0937 4.8438,16.25 h 24.2187 v -209.6875 h 47.5 z m 216.4063,116.4062 q 0,-62.6562 -19.6875,-92.0312 -19.5313,-29.2188 -60.7813,-29.2188 -41.875,0 -61.25,29.6875 -19.2187,29.6875 -19.2187,91.25 0,62.0313 19.5312,91.5625 19.5313,29.6875 60.9375,29.6875 41.875,0 61.0938,-30.1562 19.375,-30 19.375,-90.7813 z m -41.0938,-70.9375 q 5.4688,12.6563 7.3438,29.6875 2.0312,17.1875 2.0312,41.25 0,23.75 -2.0312,41.25 -1.875,17.5 -7.5,29.6875 -5.4688,12.0313 -15,18.125 -9.375,6.0938 -24.2188,6.0938 -14.6875,0 -24.375,-6.0938 -9.5312,-6.0937 -15.1562,-18.4375 -5.3125,-11.5625 -7.3438,-30.1562 -1.875,-18.5938 -1.875,-40.7813 0,-24.375 1.7188,-40.7812 1.7187,-16.4063 7.3437,-29.375 5.1563,-12.1875 14.5313,-18.5938 9.5312,-6.4062 25.1562,-6.4062 14.6875,0 24.375,6.0937 9.6875,6.0938 15,18.4375 z m 244.5313,70.9375 q 0,-62.6562 -19.6875,-92.0312 -19.5313,-29.2188 -60.7813,-29.2188 -41.875,0 -61.25,29.6875 -19.2187,29.6875 -19.2187,91.25 0,62.0313 19.5312,91.5625 19.5313,29.6875 60.9375,29.6875 41.875,0 61.0938,-30.1562 19.375,-30 19.375,-90.7813 z m -41.0938,-70.9375 q 5.4688,12.6563 7.3438,29.6875 2.0312,17.1875 2.0312,41.25 0,23.75 -2.0312,41.25 -1.875,17.5 -7.5,29.6875 -5.4688,12.0313 -15,18.125 -9.375,6.0938 -24.2188,6.0938 -14.6875,0 -24.375,-6.0938 -9.5312,-6.0937 -15.1562,-18.4375 -5.3125,-11.5625 -7.3438,-30.1562 -1.875,-18.5938 -1.875,-40.7813 0,-24.375 1.7188,-40.7812 1.7187,-16.4063 7.3437,-29.375 5.1563,-12.1875 14.5313,-18.5938 9.5312,-6.4062 25.1562,-6.4062 14.6875,0 24.375,6.0937 9.6875,6.0938 15,18.4375 z M 300.44336,978.93308 q 0,-62.65625 -19.6875,-92.03125 -19.53125,-29.21875 -60.78125,-29.21875 -41.875,0 -61.25,29.6875 -19.21875,29.6875 -19.21875,91.25 0,62.03122 19.53125,91.56252 19.53125,29.6875 60.9375,29.6875 41.875,0 61.09375,-30.1563 19.375,-30 19.375,-90.78122 z m -41.09375,-70.9375 q 5.46875,12.65625 7.34375,29.6875 2.03125,17.1875 2.03125,41.25 0,23.75002 -2.03125,41.25002 -1.875,17.5 -7.5,29.6875 -5.46875,12.0312 -15,18.125 -9.375,6.0937 -24.21875,6.0937 -14.6875,0 -24.375,-6.0937 -9.53125,-6.0938 -15.15625,-18.4375 -5.3125,-11.5625 -7.34375,-30.1563 -1.875,-18.5937 -1.875,-40.78122 0,-24.375 1.71875,-40.78125 1.71875,-16.40625 7.34375,-29.375 5.15625,-12.1875 14.53125,-18.59375 9.53125,-6.40625 25.15625,-6.40625 14.6875,0 24.375,6.09375 9.6875,6.09375 15,18.4375 z m 244.53125,70.9375 q 0,-62.65625 -19.6875,-92.03125 -19.53125,-29.21875 -60.78125,-29.21875 -41.875,0 -61.25,29.6875 -19.21875,29.6875 -19.21875,91.25 0,62.03122 19.53125,91.56252 19.53125,29.6875 60.9375,29.6875 41.875,0 61.09375,-30.1563 19.375,-30 19.375,-90.78122 z m -41.09375,-70.9375 q 5.46875,12.65625 7.34375,29.6875 2.03125,17.1875 2.03125,41.25 0,23.75002 -2.03125,41.25002 -1.875,17.5 -7.5,29.6875 -5.46875,12.0312 -15,18.125 -9.375,6.0937 -24.21875,6.0937 -14.6875,0 -24.375,-6.0937 -9.53125,-6.0938 -15.15625,-18.4375 -5.3125,-11.5625 -7.34375,-30.1563 -1.875,-18.5937 -1.875,-40.78122 0,-24.375 1.71875,-40.78125 1.71875,-16.40625 7.34375,-29.375 5.15625,-12.1875 14.53125,-18.59375 9.53125,-6.40625 25.15625,-6.40625 14.6875,0 24.375,6.09375 9.6875,6.09375 15,18.4375 z m 231.5625,-45.46875 h -125.9375 v 23.75 h 48.4375 v 155.93747 h -48.4375 v 21.25 q 9.84375,0 21.09375,1.5625 11.25,1.7188 17.03125,4.8438 7.1875,3.9062 11.25,9.8437 4.21875,6.0938 4.84375,16.25 h 24.21875 V 886.27683 h 47.5 z m 203.4375,0 h -125.9375 v 23.75 h 48.4375 v 155.93747 h -48.4375 v 21.25 q 9.84375,0 21.09375,1.5625 11.25,1.7188 17.03125,4.8438 7.1875,3.9062 11.25,9.8437 4.21875,6.0938 4.84375,16.25 h 24.21875 V 886.27683 h 47.5 z M 2464.1934,978.93308 q 0,-62.65625 -19.6875,-92.03125 -19.5313,-29.21875 -60.7813,-29.21875 -41.875,0 -61.25,29.6875 -19.2187,29.6875 -19.2187,91.25 0,62.03122 19.5312,91.56252 19.5313,29.6875 60.9375,29.6875 41.875,0 61.0938,-30.1563 19.375,-30 19.375,-90.78122 z m -41.0938,-70.9375 q 5.4688,12.65625 7.3438,29.6875 2.0312,17.1875 2.0312,41.25 0,23.75002 -2.0312,41.25002 -1.875,17.5 -7.5,29.6875 -5.4688,12.0312 -15,18.125 -9.375,6.0937 -24.2188,6.0937 -14.6875,0 -24.375,-6.0937 -9.5312,-6.0938 -15.1562,-18.4375 -5.3125,-11.5625 -7.3438,-30.1563 -1.875,-18.5937 -1.875,-40.78122 0,-24.375 1.7188,-40.78125 1.7187,-16.40625 7.3437,-29.375 5.1563,-12.1875 14.5313,-18.59375 9.5312,-6.40625 25.1562,-6.40625 14.6875,0 24.375,6.09375 9.6875,6.09375 15,18.4375 z m 231.5625,-45.46875 h -125.9375 v 23.75 h 48.4375 v 155.93747 h -48.4375 v 21.25 q 9.8438,0 21.0938,1.5625 11.25,1.7188 17.0312,4.8438 7.1875,3.9062 11.25,9.8437 4.2188,6.0938 4.8438,16.25 h 24.2187 V 886.27683 h 47.5 z m 216.4063,116.40625 q 0,-62.65625 -19.6875,-92.03125 -19.5313,-29.21875 -60.7813,-29.21875 -41.875,0 -61.25,29.6875 -19.2187,29.6875 -19.2187,91.25 0,62.03122 19.5312,91.56252 19.5313,29.6875 60.9375,29.6875 41.875,0 61.0938,-30.1563 19.375,-30 19.375,-90.78122 z m -41.0938,-70.9375 q 5.4688,12.65625 7.3438,29.6875 2.0312,17.1875 2.0312,41.25 0,23.75002 -2.0312,41.25002 -1.875,17.5 -7.5,29.6875 -5.4688,12.0312 -15,18.125 -9.375,6.0937 -24.2188,6.0937 -14.6875,0 -24.375,-6.0937 -9.5312,-6.0938 -15.1562,-18.4375 -5.3125,-11.5625 -7.3438,-30.1563 -1.875,-18.5937 -1.875,-40.78122 0,-24.375 1.7188,-40.78125 1.7187,-16.40625 7.3437,-29.375 5.1563,-12.1875 14.5313,-18.59375 9.5312,-6.40625 25.1562,-6.40625 14.6875,0 24.375,6.09375 9.6875,6.09375 15,18.4375 z m 244.5313,70.9375 q 0,-62.65625 -19.6875,-92.03125 -19.5313,-29.21875 -60.7813,-29.21875 -41.875,0 -61.25,29.6875 -19.2187,29.6875 -19.2187,91.25 0,62.03122 19.5312,91.56252 19.5313,29.6875 60.9375,29.6875 41.875,0 61.0938,-30.1563 19.375,-30 19.375,-90.78122 z m -41.0938,-70.9375 q 5.4688,12.65625 7.3438,29.6875 2.0312,17.1875 2.0312,41.25 0,23.75002 -2.0312,41.25002 -1.875,17.5 -7.5,29.6875 -5.4688,12.0312 -15,18.125 -9.375,6.0937 -24.2188,6.0937 -14.6875,0 -24.375,-6.0937 -9.5312,-6.0938 -15.1562,-18.4375 -5.3125,-11.5625 -7.3438,-30.1563 -1.875,-18.5937 -1.875,-40.78122 0,-24.375 1.7188,-40.78125 1.7187,-16.40625 7.3437,-29.375 5.1563,-12.1875 14.5313,-18.59375 9.5312,-6.40625 25.1562,-6.40625 14.6875,0 24.375,6.09375 9.6875,6.09375 15,18.4375 z m 244.5313,70.9375 q 0,-62.65625 -19.6875,-92.03125 -19.5313,-29.21875 -60.7813,-29.21875 -41.875,0 -61.25,29.6875 -19.2187,29.6875 -19.2187,91.25 0,62.03122 19.5312,91.56252 19.5313,29.6875 60.9375,29.6875 41.875,0 61.0938,-30.1563 19.375,-30 19.375,-90.78122 z m -41.0938,-70.9375 q 5.4688,12.65625 7.3438,29.6875 2.0312,17.1875 2.0312,41.25 0,23.75002 -2.0312,41.25002 -1.875,17.5 -7.5,29.6875 -5.4688,12.0312 -15,18.125 -9.375,6.0937 -24.2188,6.0937 -14.6875,0 -24.375,-6.0937 -9.5312,-6.0938 -15.1562,-18.4375 -5.3125,-11.5625 -7.3438,-30.1563 -1.875,-18.5937 -1.875,-40.78122 0,-24.375 1.7188,-40.78125 1.7187,-16.40625 7.3437,-29.375 5.1563,-12.1875 14.5313,-18.59375 9.5312,-6.40625 25.1562,-6.40625 14.6875,0 24.375,6.09375 9.6875,6.09375 15,18.4375 z m 244.5313,70.9375 q 0,-62.65625 -19.6875,-92.03125 -19.5313,-29.21875 -60.7813,-29.21875 -41.875,0 -61.25,29.6875 -19.2187,29.6875 -19.2187,91.25 0,62.03122 19.5312,91.56252 19.5313,29.6875 60.9375,29.6875 41.875,0 61.0938,-30.1563 19.375,-30 19.375,-90.78122 z m -41.0938,-70.9375 q 5.4688,12.65625 7.3438,29.6875 2.0312,17.1875 2.0312,41.25 0,23.75002 -2.0312,41.25002 -1.875,17.5 -7.5,29.6875 -5.4688,12.0312 -15,18.125 -9.375,6.0937 -24.2188,6.0937 -14.6875,0 -24.375,-6.0937 -9.5312,-6.0938 -15.1562,-18.4375 -5.3125,-11.5625 -7.3438,-30.1563 -1.875,-18.5937 -1.875,-40.78122 0,-24.375 1.7188,-40.78125 1.7187,-16.40625 7.3437,-29.375 5.1563,-12.1875 14.5313,-18.59375 9.5312,-6.40625 25.1562,-6.40625 14.6875,0 24.375,6.09375 9.6875,6.09375 15,18.4375 z m 231.5625,-45.46875 h -125.9375 v 23.75 h 48.4375 v 155.93747 h -48.4375 v 21.25 q 9.8438,0 21.0938,1.5625 11.25,1.7188 17.0312,4.8438 7.1875,3.9062 11.25,9.8437 4.2188,6.0938 4.8438,16.25 h 24.2187 V 886.27683 h 47.5 z m 203.4375,0 h -125.9375 v 23.75 h 48.4375 v 155.93747 h -48.4375 v 21.25 q 9.8438,0 21.0938,1.5625 11.25,1.7188 17.0312,4.8438 7.1875,3.9062 11.25,9.8437 4.2188,6.0938 4.8438,16.25 h 24.2187 V 886.27683 h 47.5 z m 203.4375,0 h -125.9375 v 23.75 h 48.4375 v 155.93747 h -48.4375 v 21.25 q 9.8438,0 21.0938,1.5625 11.25,1.7188 17.0312,4.8438 7.1875,3.9062 11.25,9.8437 4.2188,6.0938 4.8438,16.25 h 24.2187 V 886.27683 h 47.5 z m 216.4063,116.40625 q 0,-62.65625 -19.6875,-92.03125 -19.5313,-29.21875 -60.7813,-29.21875 -41.875,0 -61.25,29.6875 -19.2187,29.6875 -19.2187,91.25 0,62.03122 19.5312,91.56252 19.5313,29.6875 60.9375,29.6875 41.875,0 61.0938,-30.1563 19.375,-30 19.375,-90.78122 z m -41.0938,-70.9375 q 5.4688,12.65625 7.3438,29.6875 2.0312,17.1875 2.0312,41.25 0,23.75002 -2.0312,41.25002 -1.875,17.5 -7.5,29.6875 -5.4688,12.0312 -15,18.125 -9.375,6.0937 -24.2188,6.0937 -14.6875,0 -24.375,-6.0937 -9.5312,-6.0938 -15.1562,-18.4375 -5.3125,-11.5625 -7.3438,-30.1563 -1.875,-18.5937 -1.875,-40.78122 0,-24.375 1.7188,-40.78125 1.7187,-16.40625 7.3437,-29.375 5.1563,-12.1875 14.5313,-18.59375 9.5312,-6.40625 25.1562,-6.40625 14.6875,0 24.375,6.09375 9.6875,6.09375 15,18.4375 z m 231.5625,-45.46875 h -125.9375 v 23.75 h 48.4375 v 155.93747 h -48.4375 v 21.25 q 9.8438,0 21.0938,1.5625 11.25,1.7188 17.0312,4.8438 7.1875,3.9062 11.25,9.8437 4.2188,6.0938 4.8438,16.25 h 24.2187 V 886.27683 h 47.5 z m 216.4063,116.40625 q 0,-62.65625 -19.6875,-92.03125 -19.5313,-29.21875 -60.7813,-29.21875 -41.875,0 -61.25,29.6875 -19.2187,29.6875 -19.2187,91.25 0,62.03122 19.5312,91.56252 19.5313,29.6875 60.9375,29.6875 41.875,0 61.0938,-30.1563 19.375,-30 19.375,-90.78122 z m -41.0938,-70.9375 q 5.4688,12.65625 7.3438,29.6875 2.0312,17.1875 2.0312,41.25 0,23.75002 -2.0312,41.25002 -1.875,17.5 -7.5,29.6875 -5.4688,12.0312 -15,18.125 -9.375,6.0937 -24.2188,6.0937 -14.6875,0 -24.375,-6.0937 -9.5312,-6.0938 -15.1562,-18.4375 -5.3125,-11.5625 -7.3438,-30.1563 -1.875,-18.5937 -1.875,-40.78122 0,-24.375 1.7188,-40.78125 1.7187,-16.40625 7.3437,-29.375 5.1563,-12.1875 14.5313,-18.59375 9.5312,-6.40625 25.1562,-6.40625 14.6875,0 24.375,6.09375 9.6875,6.09375 15,18.4375 z m 231.5625,-45.46875 h -125.9375 v 23.75 h 48.4375 v 155.93747 h -48.4375 v 21.25 q 9.8438,0 21.0938,1.5625 11.25,1.7188 17.0312,4.8438 7.1875,3.9062 11.25,9.8437 4.2188,6.0938 4.8438,16.25 h 24.2187 V 886.27683 h 47.5 z m 216.4063,116.40625 q 0,-62.65625 -19.6875,-92.03125 -19.5313,-29.21875 -60.7813,-29.21875 -41.875,0 -61.25,29.6875 -19.2187,29.6875 -19.2187,91.25 0,62.03122 19.5312,91.56252 19.5313,29.6875 60.9375,29.6875 41.875,0 61.0938,-30.1563 19.375,-30 19.375,-90.78122 z m -41.0938,-70.9375 q 5.4688,12.65625 7.3438,29.6875 2.0312,17.1875 2.0312,41.25 0,23.75002 -2.0312,41.25002 -1.875,17.5 -7.5,29.6875 -5.4688,12.0312 -15,18.125 -9.375,6.0937 -24.2188,6.0937 -14.6875,0 -24.375,-6.0937 -9.5312,-6.0938 -15.1562,-18.4375 -5.3125,-11.5625 -7.3438,-30.1563 -1.875,-18.5937 -1.875,-40.78122 0,-24.375 1.7188,-40.78125 1.7187,-16.40625 7.3437,-29.375 5.1563,-12.1875 14.5313,-18.59375 9.5312,-6.40625 25.1562,-6.40625 14.6875,0 24.375,6.09375 9.6875,6.09375 15,18.4375 z M 287.47461,462.52683 h -125.9375 v 23.75 h 48.4375 v 155.9375 h -48.4375 v 21.25 q 9.84375,0 21.09375,1.5625 11.25,1.71875 17.03125,4.84375 7.1875,3.90625 11.25,9.84375 4.21875,6.09375 4.84375,16.25 h 24.21875 v -209.6875 h 47.5 z m 203.4375,0 h -125.9375 v 23.75 h 48.4375 v 155.9375 h -48.4375 v 21.25 q 9.84375,0 21.09375,1.5625 11.25,1.71875 17.03125,4.84375 7.1875,3.90625 11.25,9.84375 4.21875,6.09375 4.84375,16.25 h 24.21875 v -209.6875 h 47.5 z m 216.40625,116.40625 q 0,-62.65625 -19.6875,-92.03125 -19.53125,-29.21875 -60.78125,-29.21875 -41.875,0 -61.25,29.6875 -19.21875,29.6875 -19.21875,91.25 0,62.03125 19.53125,91.5625 19.53125,29.6875 60.9375,29.6875 41.875,0 61.09375,-30.15625 19.375,-30 19.375,-90.78125 z m -41.09375,-70.9375 q 5.46875,12.65625 7.34375,29.6875 2.03125,17.1875 2.03125,41.25 0,23.75 -2.03125,41.25 -1.875,17.5 -7.5,29.6875 -5.46875,12.03125 -15,18.125 -9.375,6.09375 -24.21875,6.09375 -14.6875,0 -24.375,-6.09375 -9.53125,-6.09375 -15.15625,-18.4375 -5.3125,-11.5625 -7.34375,-30.15625 -1.875,-18.59375 -1.875,-40.78125 0,-24.375 1.71875,-40.78125 1.71875,-16.40625 7.34375,-29.375 5.15625,-12.1875 14.53125,-18.59375 9.53125,-6.40625 25.15625,-6.40625 14.6875,0 24.375,6.09375 9.6875,6.09375 15,18.4375 z m 231.5625,-45.46875 h -125.9375 v 23.75 h 48.4375 v 155.9375 h -48.4375 v 21.25 q 9.84375,0 21.09375,1.5625 11.25,1.71875 17.03125,4.84375 7.1875,3.90625 11.25,9.84375 4.21875,6.09375 4.84375,16.25 h 24.21875 v -209.6875 h 47.5 z m 203.43749,0 H 975.28711 v 23.75 h 48.43749 v 155.9375 h -48.43749 v 21.25 q 9.84375,0 21.09375,1.5625 11.25004,1.71875 17.03124,4.84375 7.1875,3.90625 11.25,9.84375 4.2188,6.09375 4.8438,16.25 h 24.2187 v -209.6875 h 47.5 z m 216.4063,116.40625 q 0,-62.65625 -19.6875,-92.03125 -19.5313,-29.21875 -60.7813,-29.21875 -41.875,0 -61.25,29.6875 -19.2187,29.6875 -19.2187,91.25 0,62.03125 19.5312,91.5625 19.5313,29.6875 60.9375,29.6875 41.875,0 61.0938,-30.15625 19.375,-30 19.375,-90.78125 z m -41.0938,-70.9375 q 5.4688,12.65625 7.3438,29.6875 2.0312,17.1875 2.0312,41.25 0,23.75 -2.0312,41.25 -1.875,17.5 -7.5,29.6875 -5.4688,12.03125 -15,18.125 -9.375,6.09375 -24.2188,6.09375 -14.6875,0 -24.375,-6.09375 -9.5312,-6.09375 -15.1562,-18.4375 -5.3125,-11.5625 -7.3438,-30.15625 -1.875,-18.59375 -1.875,-40.78125 0,-24.375 1.7188,-40.78125 1.7187,-16.40625 7.3437,-29.375 5.1563,-12.1875 14.5313,-18.59375 9.5312,-6.40625 25.1562,-6.40625 14.6875,0 24.375,6.09375 9.6875,6.09375 15,18.4375 z m 231.5625,-45.46875 h -125.9375 v 23.75 h 48.4375 v 155.9375 h -48.4375 v 21.25 q 9.8438,0 21.0938,1.5625 11.25,1.71875 17.0312,4.84375 7.1875,3.90625 11.25,9.84375 4.2188,6.09375 4.8438,16.25 h 24.2187 v -209.6875 h 47.5 z m 216.4063,116.40625 q 0,-62.65625 -19.6875,-92.03125 -19.5313,-29.21875 -60.7813,-29.21875 -41.875,0 -61.25,29.6875 -19.2187,29.6875 -19.2187,91.25 0,62.03125 19.5312,91.5625 19.5313,29.6875 60.9375,29.6875 41.875,0 61.0938,-30.15625 19.375,-30 19.375,-90.78125 z m -41.0938,-70.9375 q 5.4688,12.65625 7.3438,29.6875 2.0312,17.1875 2.0312,41.25 0,23.75 -2.0312,41.25 -1.875,17.5 -7.5,29.6875 -5.4688,12.03125 -15,18.125 -9.375,6.09375 -24.2188,6.09375 -14.6875,0 -24.375,-6.09375 -9.5312,-6.09375 -15.1562,-18.4375 -5.3125,-11.5625 -7.3438,-30.15625 -1.875,-18.59375 -1.875,-40.78125 0,-24.375 1.7188,-40.78125 1.7187,-16.40625 7.3437,-29.375 5.1563,-12.1875 14.5313,-18.59375 9.5312,-6.40625 25.1562,-6.40625 14.6875,0 24.375,6.09375 9.6875,6.09375 15,18.4375 z m 231.5625,-45.46875 h -125.9375 v 23.75 h 48.4375 v 155.9375 h -48.4375 v 21.25 q 9.8438,0 21.0938,1.5625 11.25,1.71875 17.0312,4.84375 7.1875,3.90625 11.25,9.84375 4.2188,6.09375 4.8438,16.25 h 24.2187 v -209.6875 h 47.5 z m 203.4375,0 h -125.9375 v 23.75 h 48.4375 v 155.9375 h -48.4375 v 21.25 q 9.8438,0 21.0938,1.5625 11.25,1.71875 17.0312,4.84375 7.1875,3.90625 11.25,9.84375 4.2188,6.09375 4.8438,16.25 h 24.2187 v -209.6875 h 47.5 z m 216.4063,116.40625 q 0,-62.65625 -19.6875,-92.03125 -19.5313,-29.21875 -60.7813,-29.21875 -41.875,0 -61.25,29.6875 -19.2187,29.6875 -19.2187,91.25 0,62.03125 19.5312,91.5625 19.5313,29.6875 60.9375,29.6875 41.875,0 61.0938,-30.15625 19.375,-30 19.375,-90.78125 z m -41.0938,-70.9375 q 5.4688,12.65625 7.3438,29.6875 2.0312,17.1875 2.0312,41.25 0,23.75 -2.0312,41.25 -1.875,17.5 -7.5,29.6875 -5.4688,12.03125 -15,18.125 -9.375,6.09375 -24.2188,6.09375 -14.6875,0 -24.375,-6.09375 -9.5312,-6.09375 -15.1562,-18.4375 -5.3125,-11.5625 -7.3438,-30.15625 -1.875,-18.59375 -1.875,-40.78125 0,-24.375 1.7188,-40.78125 1.7187,-16.40625 7.3437,-29.375 5.1563,-12.1875 14.5313,-18.59375 9.5312,-6.40625 25.1562,-6.40625 14.6875,0 24.375,6.09375 9.6875,6.09375 15,18.4375 z m 244.5313,70.9375 q 0,-62.65625 -19.6875,-92.03125 -19.5313,-29.21875 -60.7813,-29.21875 -41.875,0 -61.25,29.6875 -19.2187,29.6875 -19.2187,91.25 0,62.03125 19.5312,91.5625 19.5313,29.6875 60.9375,29.6875 41.875,0 61.0938,-30.15625 19.375,-30 19.375,-90.78125 z m -41.0938,-70.9375 q 5.4688,12.65625 7.3438,29.6875 2.0312,17.1875 2.0312,41.25 0,23.75 -2.0312,41.25 -1.875,17.5 -7.5,29.6875 -5.4688,12.03125 -15,18.125 -9.375,6.09375 -24.2188,6.09375 -14.6875,0 -24.375,-6.09375 -9.5312,-6.09375 -15.1562,-18.4375 -5.3125,-11.5625 -7.3438,-30.15625 -1.875,-18.59375 -1.875,-40.78125 0,-24.375 1.7188,-40.78125 1.7187,-16.40625 7.3437,-29.375 5.1563,-12.1875 14.5313,-18.59375 9.5312,-6.40625 25.1562,-6.40625 14.6875,0 24.375,6.09375 9.6875,6.09375 15,18.4375 z m 231.5625,-45.46875 h -125.9375 v 23.75 h 48.4375 v 155.9375 h -48.4375 v 21.25 q 9.8438,0 21.0938,1.5625 11.25,1.71875 17.0312,4.84375 7.1875,3.90625 11.25,9.84375 4.2188,6.09375 4.8438,16.25 h 24.2187 v -209.6875 h 47.5 z m 216.4063,116.40625 q 0,-62.65625 -19.6875,-92.03125 -19.5313,-29.21875 -60.7813,-29.21875 -41.875,0 -61.25,29.6875 -19.2187,29.6875 -19.2187,91.25 0,62.03125 19.5312,91.5625 19.5313,29.6875 60.9375,29.6875 41.875,0 61.0938,-30.15625 19.375,-30 19.375,-90.78125 z m -41.0938,-70.9375 q 5.4688,12.65625 7.3438,29.6875 2.0312,17.1875 2.0312,41.25 0,23.75 -2.0312,41.25 -1.875,17.5 -7.5,29.6875 -5.4688,12.03125 -15,18.125 -9.375,6.09375 -24.2188,6.09375 -14.6875,0 -24.375,-6.09375 -9.5312,-6.09375 -15.1562,-18.4375 -5.3125,-11.5625 -7.3438,-30.15625 -1.875,-18.59375 -1.875,-40.78125 0,-24.375 1.7188,-40.78125 1.7187,-16.40625 7.3437,-29.375 5.1563,-12.1875 14.5313,-18.59375 9.5312,-6.40625 25.1562,-6.40625 14.6875,0 24.375,6.09375 9.6875,6.09375 15,18.4375 z m 231.5625,-45.46875 h -125.9375 v 23.75 h 48.4375 v 155.9375 h -48.4375 v 21.25 q 9.8438,0 21.0938,1.5625 11.25,1.71875 17.0312,4.84375 7.1875,3.90625 11.25,9.84375 4.2188,6.09375 4.8438,16.25 h 24.2187 v -209.6875 h 47.5 z m 216.4063,116.40625 q 0,-62.65625 -19.6875,-92.03125 -19.5313,-29.21875 -60.7813,-29.21875 -41.875,0 -61.25,29.6875 -19.2187,29.6875 -19.2187,91.25 0,62.03125 19.5312,91.5625 19.5313,29.6875 60.9375,29.6875 41.875,0 61.0938,-30.15625 19.375,-30 19.375,-90.78125 z m -41.0938,-70.9375 q 5.4688,12.65625 7.3438,29.6875 2.0312,17.1875 2.0312,41.25 0,23.75 -2.0312,41.25 -1.875,17.5 -7.5,29.6875 -5.4688,12.03125 -15,18.125 -9.375,6.09375 -24.2188,6.09375 -14.6875,0 -24.375,-6.09375 -9.5312,-6.09375 -15.1562,-18.4375 -5.3125,-11.5625 -7.3438,-30.15625 -1.875,-18.59375 -1.875,-40.78125 0,-24.375 1.7188,-40.78125 1.7187,-16.40625 7.3437,-29.375 5.1563,-12.1875 14.5313,-18.59375 9.5312,-6.40625 25.1562,-6.40625 14.6875,0 24.375,6.09375 9.6875,6.09375 15,18.4375 z m 244.5313,70.9375 q 0,-62.65625 -19.6875,-92.03125 -19.5313,-29.21875 -60.7813,-29.21875 -41.875,0 -61.25,29.6875 -19.2187,29.6875 -19.2187,91.25 0,62.03125 19.5312,91.5625 19.5313,29.6875 60.9375,29.6875 41.875,0 61.0938,-30.15625 19.375,-30 19.375,-90.78125 z m -41.0938,-70.9375 q 5.4688,12.65625 7.3438,29.6875 2.0312,17.1875 2.0312,41.25 0,23.75 -2.0312,41.25 -1.875,17.5 -7.5,29.6875 -5.4688,12.03125 -15,18.125 -9.375,6.09375 -24.2188,6.09375 -14.6875,0 -24.375,-6.09375 -9.5312,-6.09375 -15.1562,-18.4375 -5.3125,-11.5625 -7.3438,-30.15625 -1.875,-18.59375 -1.875,-40.78125 0,-24.375 1.7188,-40.78125 1.7187,-16.40625 7.3437,-29.375 5.1563,-12.1875 14.5313,-18.59375 9.5312,-6.40625 25.1562,-6.40625 14.6875,0 24.375,6.09375 9.6875,6.09375 15,18.4375 z m 244.5313,70.9375 q 0,-62.65625 -19.6875,-92.03125 -19.5313,-29.21875 -60.7813,-29.21875 -41.875,0 -61.25,29.6875 -19.2187,29.6875 -19.2187,91.25 0,62.03125 19.5312,91.5625 19.5313,29.6875 60.9375,29.6875 41.875,0 61.0938,-30.15625 19.375,-30 19.375,-90.78125 z m -41.0938,-70.9375 q 5.4688,12.65625 7.3438,29.6875 2.0312,17.1875 2.0312,41.25 0,23.75 -2.0312,41.25 -1.875,17.5 -7.5,29.6875 -5.4688,12.03125 -15,18.125 -9.375,6.09375 -24.2188,6.09375 -14.6875,0 -24.375,-6.09375 -9.5312,-6.09375 -15.1562,-18.4375 -5.3125,-11.5625 -7.3438,-30.15625 -1.875,-18.59375 -1.875,-40.78125 0,-24.375 1.7188,-40.78125 1.7187,-16.40625 7.3437,-29.375 5.1563,-12.1875 14.5313,-18.59375 9.5312,-6.40625 25.1562,-6.40625 14.6875,0 24.375,6.09375 9.6875,6.09375 15,18.4375 z m 244.5313,70.9375 q 0,-62.65625 -19.6875,-92.03125 -19.5313,-29.21875 -60.7813,-29.21875 -41.875,0 -61.25,29.6875 -19.2187,29.6875 -19.2187,91.25 0,62.03125 19.5312,91.5625 19.5313,29.6875 60.9375,29.6875 41.875,0 61.0938,-30.15625 19.375,-30 19.375,-90.78125 z m -41.0938,-70.9375 q 5.4688,12.65625 7.3438,29.6875 2.0312,17.1875 2.0312,41.25 0,23.75 -2.0312,41.25 -1.875,17.5 -7.5,29.6875 -5.4688,12.03125 -15,18.125 -9.375,6.09375 -24.2188,6.09375 -14.6875,0 -24.375,-6.09375 -9.5312,-6.09375 -15.1562,-18.4375 -5.3125,-11.5625 -7.3438,-30.15625 -1.875,-18.59375 -1.875,-40.78125 0,-24.375 1.7188,-40.78125 1.7187,-16.40625 7.3437,-29.375 5.1563,-12.1875 14.5313,-18.59375 9.5312,-6.40625 25.1562,-6.40625 14.6875,0 24.375,6.09375 9.6875,6.09375 15,18.4375 z m 244.5313,70.9375 q 0,-62.65625 -19.6875,-92.03125 -19.5313,-29.21875 -60.7813,-29.21875 -41.875,0 -61.25,29.6875 -19.2187,29.6875 -19.2187,91.25 0,62.03125 19.5312,91.5625 19.5313,29.6875 60.9375,29.6875 41.875,0 61.0938,-30.15625 19.375,-30 19.375,-90.78125 z m -41.0938,-70.9375 q 5.4688,12.65625 7.3438,29.6875 2.0312,17.1875 2.0312,41.25 0,23.75 -2.0312,41.25 -1.875,17.5 -7.5,29.6875 -5.4688,12.03125 -15,18.125 -9.375,6.09375 -24.2188,6.09375 -14.6875,0 -24.375,-6.09375 -9.5312,-6.09375 -15.1562,-18.4375 -5.3125,-11.5625 -7.3438,-30.15625 -1.875,-18.59375 -1.875,-40.78125 0,-24.375 1.7188,-40.78125 1.7187,-16.40625 7.3437,-29.375 5.1563,-12.1875 14.5313,-18.59375 9.5312,-6.40625 25.1562,-6.40625 14.6875,0 24.375,6.09375 9.6875,6.09375 15,18.4375 z m 244.5313,70.9375 q 0,-62.65625 -19.6875,-92.03125 -19.5313,-29.21875 -60.7813,-29.21875 -41.875,0 -61.25,29.6875 -19.2187,29.6875 -19.2187,91.25 0,62.03125 19.5312,91.5625 19.5313,29.6875 60.9375,29.6875 41.875,0 61.0938,-30.15625 19.375,-30 19.375,-90.78125 z m -41.0938,-70.9375 q 5.4688,12.65625 7.3438,29.6875 2.0312,17.1875 2.0312,41.25 0,23.75 -2.0312,41.25 -1.875,17.5 -7.5,29.6875 -5.4688,12.03125 -15,18.125 -9.375,6.09375 -24.2188,6.09375 -14.6875,0 -24.375,-6.09375 -9.5312,-6.09375 -15.1562,-18.4375 -5.3125,-11.5625 -7.3438,-30.15625 -1.875,-18.59375 -1.875,-40.78125 0,-24.375 1.7188,-40.78125 1.7187,-16.40625 7.3437,-29.375 5.1563,-12.1875 14.5313,-18.59375 9.5312,-6.40625 25.1562,-6.40625 14.6875,0 24.375,6.09375 9.6875,6.09375 15,18.4375 z m 244.5313,70.9375 q 0,-62.65625 -19.6875,-92.03125 -19.5313,-29.21875 -60.7813,-29.21875 -41.875,0 -61.25,29.6875 -19.2187,29.6875 -19.2187,91.25 0,62.03125 19.5312,91.5625 19.5313,29.6875 60.9375,29.6875 41.875,0 61.0938,-30.15625 19.375,-30 19.375,-90.78125 z m -41.0938,-70.9375 q 5.4688,12.65625 7.3438,29.6875 2.0312,17.1875 2.0312,41.25 0,23.75 -2.0312,41.25 -1.875,17.5 -7.5,29.6875 -5.4688,12.03125 -15,18.125 -9.375,6.09375 -24.2188,6.09375 -14.6875,0 -24.375,-6.09375 -9.5312,-6.09375 -15.1562,-18.4375 -5.3125,-11.5625 -7.3438,-30.15625 -1.875,-18.59375 -1.875,-40.78125 0,-24.375 1.7188,-40.78125 1.7187,-16.40625 7.3437,-29.375 5.1563,-12.1875 14.5313,-18.59375 9.5312,-6.40625 25.1562,-6.40625 14.6875,0 24.375,6.09375 9.6875,6.09375 15,18.4375 z m 244.5313,70.9375 q 0,-62.65625 -19.6875,-92.03125 -19.5313,-29.21875 -60.7813,-29.21875 -41.875,0 -61.25,29.6875 -19.2187,29.6875 -19.2187,91.25 0,62.03125 19.5312,91.5625 19.5313,29.6875 60.9375,29.6875 41.875,0 61.0938,-30.15625 19.375,-30 19.375,-90.78125 z m -41.0938,-70.9375 q 5.4688,12.65625 7.3438,29.6875 2.0312,17.1875 2.0312,41.25 0,23.75 -2.0312,41.25 -1.875,17.5 -7.5,29.6875 -5.4688,12.03125 -15,18.125 -9.375,6.09375 -24.2188,6.09375 -14.6875,0 -24.375,-6.09375 -9.5312,-6.09375 -15.1562,-18.4375 -5.3125,-11.5625 -7.3438,-30.15625 -1.875,-18.59375 -1.875,-40.78125 0,-24.375 1.7188,-40.78125 1.7187,-16.40625 7.3437,-29.375 5.1563,-12.1875 14.5313,-18.59375 9.5312,-6.40625 25.1562,-6.40625 14.6875,0 24.375,6.09375 9.6875,6.09375 15,18.4375 z m 244.5313,70.9375 q 0,-62.65625 -19.6875,-92.03125 -19.5313,-29.21875 -60.7813,-29.21875 -41.875,0 -61.25,29.6875 -19.2187,29.6875 -19.2187,91.25 0,62.03125 19.5312,91.5625 19.5313,29.6875 60.9375,29.6875 41.875,0 61.0938,-30.15625 19.375,-30 19.375,-90.78125 z m -41.0938,-70.9375 q 5.4688,12.65625 7.3438,29.6875 2.0312,17.1875 2.0312,41.25 0,23.75 -2.0312,41.25 -1.875,17.5 -7.5,29.6875 -5.4688,12.03125 -15,18.125 -9.375,6.09375 -24.2188,6.09375 -14.6875,0 -24.375,-6.09375 -9.5312,-6.09375 -15.1562,-18.4375 -5.3125,-11.5625 -7.3438,-30.15625 -1.875,-18.59375 -1.875,-40.78125 0,-24.375 1.7188,-40.78125 1.7187,-16.40625 7.3437,-29.375 5.1563,-12.1875 14.5313,-18.59375 9.5312,-6.40625 25.1562,-6.40625 14.6875,0 24.375,6.09375 9.6875,6.09375 15,18.4375 z"
       id="text122"
       style="font-size:320px;white-space:pre;inline-size:5129.65;fill:#ffffff;stroke-width:7.49;paint-order:markers fill stroke"
       aria-label="0011                001010111100&#10;0011            01000011101010&#10;110110101100101000000000" /><g
       id="g18"
       transform="matrix(1.0680153,0,0,-1.004094,4411.6946,4761.9738)"
       style="fill:#000000;fill-opacity:1">
	<path
   d="M 259.476,280.364 V 247.5 c 0,-12.958 -10.542,-23.5 -23.5,-23.5 -12.958,0 -23.5,10.542 -23.5,23.5 v 29.672 c 0,35.757 -13.173,70.087 -37.094,96.665 l -32.981,36.646 c -2.771,3.079 -2.521,7.821 0.558,10.593 3.078,2.771 7.82,2.521 10.592,-0.558 l 32.981,-36.646 c 26.403,-29.338 40.944,-67.231 40.944,-106.7 V 247.5 c 0,-4.687 3.813,-8.5 8.5,-8.5 4.687,0 8.5,3.813 8.5,8.5 v 32.864 c 0,44.003 -16.301,86.167 -45.901,118.727 l -32.149,35.364 c -2.786,3.064 -2.56,7.809 0.505,10.595 1.437,1.307 3.242,1.95 5.042,1.95 2.04,0 4.072,-0.827 5.552,-2.455 l 32.148,-35.364 c 32.116,-35.327 49.803,-81.075 49.803,-128.817 z"
   id="path1"
   style="fill:#000000;fill-opacity:1" />
	<path
   d="m 291.476,247.5 c 0,-30.603 -24.897,-55.5 -55.5,-55.5 -30.603,0 -55.5,24.897 -55.5,55.5 v 29.672 c 0,27.839 -10.256,54.566 -28.879,75.258 l -23.447,26.053 c -2.771,3.079 -2.521,7.821 0.558,10.593 3.079,2.771 7.82,2.519 10.592,-0.558 l 23.447,-26.053 c 21.106,-23.451 32.73,-53.742 32.73,-85.293 V 247.5 c 0,-22.332 18.168,-40.5 40.5,-40.5 22.332,0 40.5,18.168 40.5,40.5 v 32.864 c 0,51.979 -19.256,101.789 -54.223,140.252 l -27.125,29.839 c -2.787,3.064 -2.561,7.809 0.504,10.595 1.437,1.307 3.242,1.95 5.042,1.95 2.04,0 4.072,-0.827 5.552,-2.455 l 27.126,-29.839 c 37.481,-41.23 58.123,-94.622 58.123,-150.342 z"
   id="path2"
   style="fill:#000000;fill-opacity:1" />
	<path
   d="m 323.476,247.5 c 0,-48.248 -39.252,-87.5 -87.5,-87.5 -48.248,0 -87.5,39.252 -87.5,87.5 v 29.672 c 0,19.92 -7.339,39.045 -20.665,53.851 l -21.112,23.458 c -2.771,3.079 -2.521,7.821 0.558,10.593 3.078,2.771 7.821,2.519 10.592,-0.558 l 21.112,-23.458 c 15.809,-17.565 24.515,-40.254 24.515,-63.886 V 247.5 c 0,-39.977 32.523,-72.5 72.5,-72.5 39.977,0 72.5,32.523 72.5,72.5 v 32.864 c 0,59.958 -22.212,117.412 -62.545,161.777 l -7.507,8.258 c -2.786,3.065 -2.56,7.809 0.505,10.595 1.437,1.306 3.243,1.95 5.042,1.95 2.04,0 4.072,-0.827 5.552,-2.455 l 7.506,-8.258 c 42.848,-47.133 66.446,-108.169 66.446,-171.867 V 247.5 Z"
   id="path3"
   style="fill:#000000;fill-opacity:1" />
	<path
   d="m 116.476,247.5 c 0,4.143 3.358,7.5 7.5,7.5 4.142,0 7.5,-3.357 7.5,-7.5 0,-25.255 9.169,-49.651 25.819,-68.695 16.495,-18.867 39.134,-31.205 63.746,-34.741 4.1,-0.589 6.946,-4.391 6.357,-8.49 -0.589,-4.1 -4.394,-6.942 -8.49,-6.357 -28.16,4.046 -54.052,18.15 -72.906,39.716 -19.04,21.777 -29.526,49.68 -29.526,78.567 z"
   id="path4"
   style="fill:#000000;fill-opacity:1" />
	<path
   d="m 131.476,277.172 c 0,-4.143 -3.358,-7.5 -7.5,-7.5 -4.142,0 -7.5,3.357 -7.5,7.5 0,12.002 -4.421,23.523 -12.449,32.443 l -18.779,20.867 c -2.771,3.078 -2.521,7.82 0.558,10.592 1.434,1.29 3.227,1.925 5.015,1.925 2.052,0 4.097,-0.838 5.577,-2.483 l 18.779,-20.866 c 10.51,-11.679 16.299,-26.764 16.299,-42.478 z"
   id="path5"
   style="fill:#000000;fill-opacity:1" />
	<path
   d="m 340.755,344.123 c -4.009,-1.044 -8.105,1.351 -9.155,5.357 -2.769,10.579 -6.213,21.096 -10.24,31.258 -1.526,3.851 0.359,8.21 4.21,9.735 0.907,0.359 1.841,0.529 2.761,0.529 2.985,0 5.808,-1.795 6.975,-4.739 4.249,-10.725 7.884,-21.822 10.806,-32.986 1.048,-4.006 -1.351,-8.105 -5.357,-9.154 z"
   id="path6"
   style="fill:#000000;fill-opacity:1" />
	<path
   d="m 315.791,158.632 c -3.081,-2.771 -7.823,-2.517 -10.592,0.563 -2.769,3.08 -2.517,7.822 0.563,10.591 22.061,19.832 34.713,48.157 34.713,77.714 v 32.864 c 0,12.473 -0.86,25.042 -2.557,37.359 -0.565,4.104 2.303,7.888 6.406,8.453 0.347,0.048 0.692,0.071 1.033,0.071 3.688,0 6.903,-2.722 7.42,-6.478 1.79,-12.993 2.698,-26.251 2.698,-39.406 V 247.5 c 10e-4,-33.805 -14.464,-66.196 -39.684,-88.868 z"
   id="path7"
   style="fill:#000000;fill-opacity:1" />
	<path
   d="m 280.729,153.076 c 1.041,0.496 2.138,0.73 3.219,0.73 2.803,0 5.492,-1.579 6.777,-4.278 1.781,-3.739 0.192,-8.215 -3.547,-9.995 -10.806,-5.145 -22.291,-8.616 -34.136,-10.317 -4.106,-0.585 -7.901,2.258 -8.49,6.357 -0.589,4.099 2.257,7.901 6.357,8.49 10.348,1.487 20.38,4.519 29.82,9.013 z"
   id="path8"
   style="fill:#000000;fill-opacity:1" />
	<path
   d="m 235.976,96 c -2.806,0 -5.644,0.078 -8.437,0.232 -4.136,0.228 -7.304,3.766 -7.076,7.901 0.229,4.136 3.763,7.321 7.902,7.075 2.519,-0.139 5.079,-0.209 7.61,-0.209 75.266,0 136.5,61.233 136.5,136.5 v 32.864 c 0,4.143 3.358,7.5 7.5,7.5 4.142,0 7.5,-3.357 7.5,-7.5 V 247.5 C 387.476,163.963 319.513,96 235.976,96 Z"
   id="path9"
   style="fill:#000000;fill-opacity:1" />
	<path
   d="m 153.972,136.693 c 1.477,0 2.97,-0.436 4.275,-1.343 12.478,-8.677 26.182,-15.155 40.733,-19.258 3.987,-1.124 6.308,-5.268 5.184,-9.254 -1.124,-3.986 -5.269,-6.304 -9.254,-5.184 -16.16,4.556 -31.376,11.749 -45.226,21.379 -3.401,2.365 -4.241,7.039 -1.876,10.439 1.457,2.098 3.791,3.221 6.164,3.221 z"
   id="path10"
   style="fill:#000000;fill-opacity:1" />
	<path
   d="M 99.476,277.172 V 247.5 c 0,-34.89 13.213,-68.118 37.205,-93.565 2.841,-3.014 2.702,-7.76 -0.312,-10.602 -3.014,-2.842 -7.761,-2.701 -10.602,0.312 C 99.14,171.886 84.476,208.77 84.476,247.5 v 29.672 c 0,4.083 -1.504,8.002 -4.234,11.035 l -9.248,10.275 c -2.771,3.079 -2.521,7.821 0.558,10.592 1.433,1.291 3.227,1.926 5.015,1.926 2.052,0 4.096,-0.837 5.577,-2.482 l 9.248,-10.275 c 5.213,-5.794 8.084,-13.277 8.084,-21.071 z"
   id="path11"
   style="fill:#000000;fill-opacity:1" />
	<path
   d="m 409.951,189.104 c -8.226,-24.446 -21.299,-46.531 -38.856,-65.642 -2.803,-3.05 -7.547,-3.252 -10.597,-0.449 -3.05,2.803 -3.251,7.547 -0.449,10.598 16.127,17.554 28.134,37.834 35.686,60.276 1.054,3.133 3.976,5.11 7.107,5.11 0.793,0 1.6,-0.127 2.393,-0.394 3.925,-1.321 6.037,-5.574 4.716,-9.499 z"
   id="path12"
   style="fill:#000000;fill-opacity:1" />
	<path
   d="m 295.247,73.822 c -3.917,-1.341 -8.183,0.748 -9.524,4.668 -1.341,3.919 0.749,8.183 4.668,9.523 16.538,5.659 32.065,13.857 46.15,24.369 1.347,1.005 2.92,1.489 4.48,1.489 2.286,0 4.544,-1.041 6.017,-3.015 2.478,-3.319 1.794,-8.019 -1.525,-10.496 C 330.176,88.916 313.264,79.986 295.247,73.822 Z"
   id="path13"
   style="fill:#000000;fill-opacity:1" />
	<path
   d="M 119.442,125.908 C 150.991,95.659 192.377,79 235.976,79 c 8.096,0 16.237,0.583 24.196,1.731 4.103,0.598 7.903,-2.252 8.495,-6.352 0.592,-4.1 -2.251,-7.902 -6.351,-8.494 -8.668,-1.25 -17.53,-1.885 -26.34,-1.885 -47.487,0 -92.56,18.141 -126.915,51.081 -34.248,32.838 -54.277,76.905 -56.397,124.084 -0.186,4.138 3.018,7.644 7.155,7.829 0.115,0.006 0.229,0.008 0.343,0.008 3.987,0 7.306,-3.14 7.487,-7.163 1.945,-43.312 20.339,-83.773 51.793,-113.931 z"
   id="path14"
   style="fill:#000000;fill-opacity:1" />
	<path
   d="m 235.976,32 c -16.772,0 -33.485,1.944 -49.674,5.778 -4.031,0.954 -6.524,4.996 -5.57,9.026 0.955,4.03 4.997,6.524 9.027,5.569 C 204.817,48.809 220.366,47 235.976,47 c 54.996,0 106.332,21.911 144.55,61.695 1.473,1.533 3.439,2.305 5.41,2.305 1.869,0 3.741,-0.694 5.195,-2.091 2.987,-2.87 3.083,-7.618 0.213,-10.604 C 371.431,77.576 348.04,61.269 321.822,49.84 294.666,38.002 265.783,32 235.976,32 Z"
   id="path15"
   style="fill:#000000;fill-opacity:1" />
	<path
   d="m 67.507,125.404 c 1.372,1.074 3.001,1.595 4.619,1.595 2.227,0 4.431,-0.987 5.91,-2.876 21.375,-27.302 49.515,-48.717 81.377,-61.932 3.826,-1.587 5.642,-5.975 4.055,-9.801 -1.587,-3.826 -5.977,-5.644 -9.801,-4.055 -34.241,14.201 -64.478,37.21 -87.441,66.539 -2.554,3.263 -1.98,7.977 1.281,10.53 z"
   id="path16"
   style="fill:#000000;fill-opacity:1" />
	<path
   d="m 131.983,38.725 c 1.094,0 2.205,-0.24 3.255,-0.748 C 166.816,22.73 200.709,15 235.976,15 c 18.378,0 36.682,2.162 54.401,6.426 4.025,0.966 8.077,-1.51 9.046,-5.537 0.969,-4.027 -1.51,-8.078 -5.538,-9.047 C 275.019,2.302 255.535,0 235.976,0 198.432,0 162.345,8.232 128.717,24.469 c -3.73,1.801 -5.294,6.285 -3.493,10.015 1.293,2.679 3.971,4.241 6.759,4.241 z"
   id="path17"
   style="fill:#000000;fill-opacity:1" />
	<path
   d="m 321.724,31.383 c 7.732,3.079 15.385,6.619 22.746,10.52 1.119,0.594 2.321,0.875 3.505,0.875 2.688,0 5.287,-1.449 6.633,-3.99 1.939,-3.66 0.545,-8.199 -3.115,-10.139 -7.837,-4.153 -15.986,-7.922 -24.22,-11.201 -3.849,-1.533 -8.21,0.345 -9.743,4.192 -1.532,3.848 0.346,8.211 4.194,9.743 z"
   id="path18"
   style="fill:#000000;fill-opacity:1" />
</g><g
       id="g152"
       style="fill:#0d0c0b;fill-opacity:1"
       transform="matrix(1.1521472,0,0,1.2227841,-691.9719,-963.77956)"><text
         xml:space="preserve"
         style="font-size:20px;text-align:start;writing-mode:lr-tb;direction:ltr;text-anchor:start;fill:#0d0c0b;fill-opacity:1;stroke:none;stroke-width:7.49;stroke-opacity:1;paint-order:markers fill stroke"
         x="6113.4688"
         y="280.59097"
         id="text143"
         transform="matrix(0.68267655,0.73072069,0.73072069,-0.68267655,0,0)"><tspan
           sodipodi:role="line"
           id="tspan143"
           style="font-size:20px;fill:#0d0c0b;fill-opacity:1;stroke-width:7.49"
           x="6113.4688"
           y="280.59097">0100111001001</tspan></text><text
         xml:space="preserve"
         style="font-size:20px;text-align:start;writing-mode:lr-tb;direction:ltr;text-anchor:start;fill:#0d0c0b;fill-opacity:1;stroke:none;stroke-width:7.49;stroke-opacity:1;paint-order:markers fill stroke"
         x="6112.1558"
         y="313.61371"
         id="text143-3"
         transform="matrix(0.68267655,0.73072069,0.73072069,-0.68267655,0,0)"><tspan
           sodipodi:role="line"
           id="tspan143-2"
           style="font-size:20px;fill:#0d0c0b;fill-opacity:1;stroke-width:7.49"
           x="6112.1558"
           y="313.61371">0100111001000</tspan></text><text
         xml:space="preserve"
         style="font-size:20px;text-align:start;writing-mode:lr-tb;direction:ltr;text-anchor:start;fill:#0d0c0b;fill-opacity:1;stroke:none;stroke-width:7.49;stroke-opacity:1;paint-order:markers fill stroke"
         x="6110.8774"
         y="346.57239"
         id="text143-3-6"
         transform="matrix(0.68267655,0.73072069,0.73072069,-0.68267655,0,0)"><tspan
           sodipodi:role="line"
           id="tspan143-2-8"
           style="font-size:20px;fill:#0d0c0b;fill-opacity:1;stroke-width:7.49"
           x="6110.8774"
           y="346.57239">0100100001001</tspan></text><text
         xml:space="preserve"
         style="font-size:20px;text-align:start;writing-mode:lr-tb;direction:ltr;text-anchor:start;fill:#0d0c0b;fill-opacity:1;stroke:none;stroke-width:7.49;stroke-opacity:1;paint-order:markers fill stroke"
         x="6111.5791"
         y="378.75006"
         id="text143-3-6-9"
         transform="matrix(0.68267655,0.73072069,0.73072069,-0.68267655,0,0)"><tspan
           sodipodi:role="line"
           id="tspan143-2-8-1"
           style="font-size:20px;fill:#0d0c0b;fill-opacity:1;stroke-width:7.49"
           x="6111.5791"
           y="378.75006">011100101001</tspan></text><text
         xml:space="preserve"
         style="font-size:20px;text-align:start;writing-mode:lr-tb;direction:ltr;text-anchor:start;fill:#0d0c0b;fill-opacity:1;stroke:none;stroke-width:7.49;stroke-opacity:1;paint-order:markers fill stroke"
         x="6128.3066"
         y="414.74701"
         id="text143-3-6-9-4"
         transform="matrix(0.68267655,0.73072069,0.73072069,-0.68267655,0,0)"><tspan
           sodipodi:role="line"
           id="tspan143-2-8-1-8"
           style="font-size:20px;fill:#0d0c0b;fill-opacity:1;stroke-width:7.49"
           x="6128.3066"
           y="414.74701">1001001000</tspan></text><text
         xml:space="preserve"
         style="font-size:20px;text-align:start;writing-mode:lr-tb;direction:ltr;text-anchor:start;fill:#0d0c0b;fill-opacity:1;stroke:none;stroke-width:7.49;stroke-opacity:1;paint-order:markers fill stroke"
         x="6132.3906"
         y="448.36124"
         id="text143-3-6-9-4-8"
         transform="matrix(0.68267655,0.73072069,0.73072069,-0.68267655,0,0)"><tspan
           sodipodi:role="line"
           id="tspan143-2-8-1-8-7"
           style="font-size:20px;fill:#0d0c0b;fill-opacity:1;stroke-width:7.49"
           x="6132.3906"
           y="448.36124">10011100001</tspan></text><text
         xml:space="preserve"
         style="font-size:20px;text-align:start;writing-mode:lr-tb;direction:ltr;text-anchor:start;fill:#0d0c0b;fill-opacity:1;stroke:none;stroke-width:7.49;stroke-opacity:1;paint-order:markers fill stroke"
         x="6147.0762"
         y="482.33597"
         id="text143-3-6-9-4-8-1"
         transform="matrix(0.68267655,0.73072069,0.73072069,-0.68267655,0,0)"><tspan
           sodipodi:role="line"
           id="tspan143-2-8-1-8-7-9"
           style="font-size:20px;fill:#0d0c0b;fill-opacity:1;stroke-width:7.49"
           x="6147.0762"
           y="482.33597">010001110001</tspan></text></g><g
       id="g121"
       transform="translate(55.228913,-7.5604944)"
       style="fill:#000000;fill-opacity:1"><rect
         style="fill:#000000;fill-opacity:1;stroke:none;stroke-width:7.5276;stroke-opacity:1;paint-order:markers fill stroke"
         id="rect91"
         width="44.851196"
         height="1018.4033"
         x="1589.5255"
         y="-1731.0453"
         transform="scale(1,-1)"
         ry="22.651314" /><rect
         style="fill:#000000;fill-opacity:1;stroke:none;stroke-width:6.25726;stroke-opacity:1;paint-order:markers fill stroke"
         id="rect91-8"
         width="40.712048"
         height="775.22052"
         x="1900.9474"
         y="-1609.9235"
         transform="scale(1,-1)"
         ry="17.242445" /><rect
         style="fill:#000000;fill-opacity:1;stroke:none;stroke-width:4.61003;stroke-opacity:1;paint-order:markers fill stroke"
         id="rect91-8-5"
         width="33.848183"
         height="506.11801"
         x="1072.9966"
         y="-1317.4615"
         transform="scale(1,-1)"
         ry="11.257071" /><rect
         style="fill:#000000;fill-opacity:1;stroke:none;stroke-width:4.7444;stroke-opacity:1;paint-order:markers fill stroke"
         id="rect91-8-5-8"
         width="33.694302"
         height="496.34088"
         x="984.70221"
         y="-1384.1993"
         transform="scale(1,-1)"
         ry="11.059459" /><rect
         style="fill:#000000;fill-opacity:1;stroke:none;stroke-width:5.91067;stroke-opacity:1;paint-order:markers fill stroke"
         id="rect91-8-5-8-8"
         width="33.694302"
         height="770.35474"
         x="1179.8416"
         y="-1521.9227"
         transform="scale(1,-1)"
         ry="17.165031" /><rect
         style="fill:#000000;fill-opacity:1;stroke:none;stroke-width:5.72275;stroke-opacity:1;paint-order:markers fill stroke"
         id="rect91-8-5-8-8-6"
         width="33.694302"
         height="722.14862"
         x="1389.8142"
         y="-1423.6571"
         transform="scale(1,-1)"
         ry="16.090902" /><rect
         style="fill:#000000;fill-opacity:1;stroke:none;stroke-width:5.72275;stroke-opacity:1;paint-order:markers fill stroke"
         id="rect91-8-5-8-8-6-0"
         width="33.694302"
         height="722.14862"
         x="1494.995"
         y="-1419.8241"
         transform="scale(1,-1)"
         ry="16.090902" /><rect
         style="fill:#000000;fill-opacity:1;stroke:none;stroke-width:4.7444;stroke-opacity:1;paint-order:markers fill stroke"
         id="rect91-8-5-8-8-9"
         width="33.694302"
         height="496.34088"
         x="1300.5525"
         y="-1211.8311"
         transform="scale(1,-1)"
         ry="11.059459" /></g></g></svg>
